<svg width="364" height="37" viewBox="0 0 364 37" fill="none" xmlns="http://www.w3.org/2000/svg">
<mask id="path-1-inside-1_0_1493" fill="white">
<path fill-rule="evenodd" clip-rule="evenodd" d="M51.872 0H8C3.58172 0 0 3.58172 0 8V29C0 33.4183 3.58172 37 8 37H51.872C51.872 37 51.8721 37 51.8721 37C51.8721 37 51.8721 37 51.8721 37L51.8721 37C51.8721 37 51.8721 37 51.8721 37H51.8722C51.8723 37 51.8723 36.9999 51.8723 36.9998V36.9997C51.8723 36.9997 51.8723 36.9996 51.8724 36.9996L62.1905 23.3168C64.3406 20.4655 64.3406 16.5346 62.1905 13.6833L51.8724 0.000437165C51.8723 0.00038983 51.8723 0.000332158 51.8723 0.000272872C51.8723 0.000122169 51.8722 0 51.872 0Z"/>
</mask>
<path fill-rule="evenodd" clip-rule="evenodd" d="M51.872 0H8C3.58172 0 0 3.58172 0 8V29C0 33.4183 3.58172 37 8 37H51.872C51.872 37 51.8721 37 51.8721 37C51.8721 37 51.8721 37 51.8721 37L51.8721 37C51.8721 37 51.8721 37 51.8721 37H51.8722C51.8723 37 51.8723 36.9999 51.8723 36.9998V36.9997C51.8723 36.9997 51.8723 36.9996 51.8724 36.9996L62.1905 23.3168C64.3406 20.4655 64.3406 16.5346 62.1905 13.6833L51.8724 0.000437165C51.8723 0.00038983 51.8723 0.000332158 51.8723 0.000272872C51.8723 0.000122169 51.8722 0 51.872 0Z" fill="white" fill-opacity="0.16"/>
<path d="M51.8724 0.000437165L52.6708 -0.60165L51.8724 0.000437165ZM62.1905 23.3168L61.3921 22.7147L62.1905 23.3168ZM62.1905 13.6833L62.9889 13.0813L62.1905 13.6833ZM51.8724 36.9996L51.0739 36.3975L51.8724 36.9996ZM51.8721 37L51.0794 36.3903L51.8721 37ZM51.8721 37L52.6647 37.6097L51.8721 37ZM8 1H51.872V-1H8V1ZM1 29V8H-1V29H1ZM51.872 36H8V38H51.872V36ZM51.0795 36.3903L51.0794 36.3903L52.6647 37.6097L52.6647 37.6097L51.0795 36.3903ZM51.8722 36H51.8721V38H51.8722V36ZM50.8723 36.9997V36.9998H52.8723V36.9997H50.8723ZM61.3921 22.7147L51.0739 36.3975L52.6708 37.6017L62.9889 23.9188L61.3921 22.7147ZM51.0739 0.602524L61.3921 14.2854L62.9889 13.0813L52.6708 -0.60165L51.0739 0.602524ZM52.8723 0.000272872C52.8723 -0.560629 52.416 -1 51.872 -1V1C51.3284 1 50.8723 0.560874 50.8723 0.000272872H52.8723ZM52.6708 -0.60165C52.8016 -0.428227 52.8723 -0.216931 52.8723 0.000272872H50.8723C50.8723 0.217596 50.9431 0.429007 51.0739 0.602524L52.6708 -0.60165ZM62.9889 23.9188C65.4078 20.7112 65.4078 16.2889 62.9889 13.0813L61.3921 14.2854C63.2734 16.7803 63.2734 20.2198 61.3921 22.7147L62.9889 23.9188ZM52.8723 36.9997C52.8723 37.2224 52.7983 37.4326 52.6708 37.6017L51.0739 36.3975C50.9464 36.5667 50.8723 36.777 50.8723 36.9997H52.8723ZM51.8722 38C52.4245 38 52.8723 37.5522 52.8723 36.9998H50.8723C50.8723 36.4476 51.32 36 51.8722 36V38ZM50.8721 37C50.8721 37.9549 52.0825 38.3666 52.6647 37.6097L51.0794 36.3903C51.6616 35.6335 52.8721 36.0452 52.8721 37H50.8721ZM51.872 38C51.3198 38 50.8721 37.5523 50.8721 37H52.8721C52.8721 36.4477 52.4243 36 51.872 36V38ZM-1 29C-1 33.9705 3.02943 38 8 38V36C4.13401 36 1 32.866 1 29H-1ZM52.6647 37.6097C52.4754 37.8558 52.1826 38 51.8721 38V36C51.5616 36 51.2688 36.1442 51.0795 36.3903L52.6647 37.6097ZM8 -1C3.02944 -1 -1 3.02943 -1 8H1C1 4.13401 4.13401 1 8 1V-1Z" fill="white" fill-opacity="0.5" mask="url(#path-1-inside-1_0_1493)"/>
<path d="M21.1389 16.1751V21.9933H20.0849V17.2007H20.0508L18.69 18.07V17.1041L20.1361 16.1751H21.1389ZM24.7667 22.1041C24.2989 22.1041 23.8974 21.9857 23.5622 21.749C23.2289 21.5103 22.9722 21.1666 22.7923 20.7177C22.6143 20.267 22.5253 19.7243 22.5253 19.0899C22.5272 18.4554 22.6171 17.9156 22.7951 17.4706C22.9751 17.0236 23.2317 16.6827 23.565 16.4478C23.9003 16.213 24.3008 16.0956 24.7667 16.0956C25.2326 16.0956 25.6332 16.213 25.9684 16.4478C26.3037 16.6827 26.5603 17.0236 26.7383 17.4706C26.9182 17.9175 27.0082 18.4573 27.0082 19.0899C27.0082 19.7262 26.9182 20.2698 26.7383 20.7206C26.5603 21.1694 26.3037 21.5122 25.9684 21.749C25.6351 21.9857 25.2345 22.1041 24.7667 22.1041ZM24.7667 21.2149C25.1304 21.2149 25.4173 21.0359 25.6275 20.6779C25.8397 20.3181 25.9457 19.7887 25.9457 19.0899C25.9457 18.6278 25.8974 18.2395 25.8008 17.9251C25.7042 17.6107 25.5679 17.374 25.3917 17.2149C25.2156 17.0539 25.0073 16.9734 24.7667 16.9734C24.405 16.9734 24.119 17.1533 23.9088 17.5132C23.6986 17.8711 23.5925 18.3967 23.5906 19.0899C23.5887 19.5539 23.6351 19.944 23.7298 20.2603C23.8264 20.5766 23.9628 20.8153 24.1389 20.9762C24.315 21.1353 24.5243 21.2149 24.7667 21.2149ZM30.1027 22.1041C29.6349 22.1041 29.2334 21.9857 28.8981 21.749C28.5648 21.5103 28.3082 21.1666 28.1282 20.7177C27.9502 20.267 27.8612 19.7243 27.8612 19.0899C27.8631 18.4554 27.9531 17.9156 28.1311 17.4706C28.311 17.0236 28.5676 16.6827 28.901 16.4478C29.2362 16.213 29.6368 16.0956 30.1027 16.0956C30.5686 16.0956 30.9691 16.213 31.3044 16.4478C31.6396 16.6827 31.8962 17.0236 32.0743 17.4706C32.2542 17.9175 32.3441 18.4573 32.3441 19.0899C32.3441 19.7262 32.2542 20.2698 32.0743 20.7206C31.8962 21.1694 31.6396 21.5122 31.3044 21.749C30.971 21.9857 30.5705 22.1041 30.1027 22.1041ZM30.1027 21.2149C30.4663 21.2149 30.7532 21.0359 30.9635 20.6779C31.1756 20.3181 31.2816 19.7887 31.2816 19.0899C31.2816 18.6278 31.2334 18.2395 31.1368 17.9251C31.0402 17.6107 30.9038 17.374 30.7277 17.2149C30.5515 17.0539 30.3432 16.9734 30.1027 16.9734C29.7409 16.9734 29.4549 17.1533 29.2447 17.5132C29.0345 17.8711 28.9284 18.3967 28.9265 19.0899C28.9246 19.5539 28.971 19.944 29.0657 20.2603C29.1623 20.5766 29.2987 20.8153 29.4748 20.9762C29.651 21.1353 29.8602 21.2149 30.1027 21.2149ZM36.2213 20.624L36.2184 19.3825H36.3832L37.9514 17.6296H39.1531L37.2241 19.7774H37.0111L36.2213 20.624ZM35.2838 21.9933V16.1751H36.3122V21.9933H35.2838ZM38.0224 21.9933L36.602 20.0075L37.2951 19.2831L39.2525 21.9933H38.0224Z" fill="white"/>
<mask id="path-4-inside-2_0_1493" fill="white">
<path fill-rule="evenodd" clip-rule="evenodd" d="M73.5 36.9995C73.5 36.9994 73.5 36.9993 73.5001 36.9993L83.9305 23.3597C86.124 20.4912 86.124 16.5089 83.9305 13.6404L73.5001 0.000730573C73.5 0.000651302 73.5 0.000554284 73.5 0.000454491C73.5 0.000203483 73.5002 0 73.5005 0H125.372C125.372 0 125.372 0.000188344 125.372 0.000420677C125.372 0.000512075 125.372 0.00060101 125.373 0.000673985L135.69 13.6834C137.841 16.5346 137.841 20.4655 135.69 23.3168L125.373 36.9994C125.372 36.9995 125.372 36.9995 125.372 36.9996C125.372 36.9998 125.372 37 125.372 37H125.372H73.5005C73.5002 37 73.5 36.9998 73.5 36.9995Z"/>
</mask>
<path fill-rule="evenodd" clip-rule="evenodd" d="M73.5 36.9995C73.5 36.9994 73.5 36.9993 73.5001 36.9993L83.9305 23.3597C86.124 20.4912 86.124 16.5089 83.9305 13.6404L73.5001 0.000730573C73.5 0.000651302 73.5 0.000554284 73.5 0.000454491C73.5 0.000203483 73.5002 0 73.5005 0H125.372C125.372 0 125.372 0.000188344 125.372 0.000420677C125.372 0.000512075 125.372 0.00060101 125.373 0.000673985L135.69 13.6834C137.841 16.5346 137.841 20.4655 135.69 23.3168L125.373 36.9994C125.372 36.9995 125.372 36.9995 125.372 36.9996C125.372 36.9998 125.372 37 125.372 37H125.372H73.5005C73.5002 37 73.5 36.9998 73.5 36.9995Z" fill="white" fill-opacity="0.16"/>
<path d="M125.373 36.9994L126.171 37.6015L125.373 36.9994ZM135.69 13.6834L134.892 14.2854L135.69 13.6834ZM125.373 0.000673985L126.171 -0.601413L125.373 0.000673985ZM73.5001 0.000730573L72.7057 0.608183L73.5001 0.000730573ZM73.5001 36.9993L74.2944 37.6067L73.5001 36.9993ZM83.9305 13.6404L83.1362 14.2479L83.9305 13.6404ZM83.1361 22.7522L72.7057 36.3918L74.2944 37.6067L84.7249 23.9671L83.1361 22.7522ZM72.7057 0.608183L83.1362 14.2479L84.7249 13.0329L74.2944 -0.606722L72.7057 0.608183ZM125.372 -1H73.5005V1H125.372V-1ZM136.489 13.0813L126.171 -0.601413L124.574 0.602761L134.892 14.2854L136.489 13.0813ZM126.171 37.6015L136.489 23.9189L134.892 22.7147L124.574 36.3973L126.171 37.6015ZM125.372 38H125.372V36H125.372V38ZM73.5005 38H125.372V36H73.5005V38ZM124.372 36.9996C124.372 36.4475 124.82 36 125.372 36V38C125.925 38 126.372 37.5521 126.372 36.9996H124.372ZM124.574 36.3973C124.443 36.5708 124.372 36.7823 124.372 36.9996H126.372C126.372 37.2168 126.302 37.4281 126.171 37.6015L124.574 36.3973ZM134.892 14.2854C136.773 16.7803 136.773 20.2199 134.892 22.7147L136.489 23.9189C138.908 20.7112 138.908 16.2889 136.489 13.0813L134.892 14.2854ZM124.372 0.000420677C124.372 0.217847 124.443 0.429275 124.574 0.602761L126.171 -0.601413C126.302 -0.428073 126.372 -0.216823 126.372 0.000420677H124.372ZM74.5 0.000454491C74.5 0.552504 74.0525 1 73.5005 1V-1C72.9479 -1 72.5 -0.552097 72.5 0.000454491H74.5ZM74.2944 -0.606722C74.4278 -0.432385 74.5 -0.219016 74.5 0.000454491H72.5C72.5 0.220124 72.5723 0.433688 72.7057 0.608183L74.2944 -0.606722ZM72.7057 36.3918C72.5719 36.5668 72.5 36.7805 72.5 36.9995H74.5C74.5 37.2184 74.4282 37.4319 74.2944 37.6067L72.7057 36.3918ZM125.372 1C124.828 1 124.372 0.560942 124.372 0.000420677H126.372C126.372 -0.560565 125.916 -1 125.372 -1V1ZM73.5005 36C74.0525 36 74.5 36.4475 74.5 36.9995H72.5C72.5 37.5521 72.9479 38 73.5005 38V36ZM84.7249 23.9671C87.1926 20.7401 87.1926 16.26 84.7249 13.0329L83.1362 14.2479C85.0555 16.7578 85.0555 20.2423 83.1361 22.7522L84.7249 23.9671Z" fill="white" fill-opacity="0.5" mask="url(#path-4-inside-2_0_1493)"/>
<path d="M100.16 22.0728C99.7811 22.0728 99.4421 22.0018 99.1428 21.8598C98.8436 21.7158 98.6059 21.5189 98.4298 21.2689C98.2555 21.0189 98.1627 20.7329 98.1514 20.4109H99.1741C99.193 20.6495 99.2963 20.8446 99.4838 20.9961C99.6713 21.1457 99.8966 21.2206 100.16 21.2206C100.366 21.2206 100.55 21.1732 100.711 21.0785C100.872 20.9838 100.999 20.8522 101.092 20.6836C101.185 20.5151 101.23 20.3228 101.228 20.1069C101.23 19.8872 101.184 19.6921 101.089 19.5217C100.994 19.3512 100.864 19.2177 100.7 19.1211C100.535 19.0226 100.345 18.9734 100.131 18.9734C99.9572 18.9715 99.7858 19.0037 99.6173 19.07C99.4487 19.1363 99.3152 19.2234 99.2167 19.3314L98.265 19.1751L98.569 16.1751H101.944V17.0558H99.4411L99.2735 18.5984H99.3076C99.4156 18.4715 99.568 18.3664 99.765 18.2831C99.962 18.1978 100.178 18.1552 100.413 18.1552C100.765 18.1552 101.079 18.2386 101.356 18.4052C101.632 18.57 101.85 18.7973 102.009 19.087C102.168 19.3768 102.248 19.7082 102.248 20.0814C102.248 20.4658 102.159 20.8086 101.981 21.1098C101.805 21.409 101.56 21.6448 101.245 21.8171C100.933 21.9876 100.571 22.0728 100.16 22.0728ZM105.35 22.1041C104.882 22.1041 104.481 21.9857 104.146 21.749C103.812 21.5103 103.556 21.1666 103.376 20.7177C103.198 20.267 103.109 19.7243 103.109 19.0899C103.111 18.4554 103.201 17.9156 103.379 17.4706C103.559 17.0236 103.815 16.6827 104.149 16.4478C104.484 16.213 104.884 16.0956 105.35 16.0956C105.816 16.0956 106.217 16.213 106.552 16.4478C106.887 16.6827 107.144 17.0236 107.322 17.4706C107.502 17.9175 107.592 18.4573 107.592 19.0899C107.592 19.7262 107.502 20.2698 107.322 20.7206C107.144 21.1694 106.887 21.5122 106.552 21.749C106.219 21.9857 105.818 22.1041 105.35 22.1041ZM105.35 21.2149C105.714 21.2149 106.001 21.0359 106.211 20.6779C106.423 20.3181 106.529 19.7887 106.529 19.0899C106.529 18.6278 106.481 18.2395 106.384 17.9251C106.288 17.6107 106.151 17.374 105.975 17.2149C105.799 17.0539 105.591 16.9734 105.35 16.9734C104.988 16.9734 104.703 17.1533 104.492 17.5132C104.282 17.8711 104.176 18.3967 104.174 19.0899C104.172 19.5539 104.219 19.944 104.313 20.2603C104.41 20.5766 104.546 20.8153 104.722 20.9762C104.899 21.1353 105.108 21.2149 105.35 21.2149ZM110.686 22.1041C110.218 22.1041 109.817 21.9857 109.482 21.749C109.148 21.5103 108.892 21.1666 108.712 20.7177C108.534 20.267 108.445 19.7243 108.445 19.0899C108.447 18.4554 108.537 17.9156 108.715 17.4706C108.895 17.0236 109.151 16.6827 109.484 16.4478C109.82 16.213 110.22 16.0956 110.686 16.0956C111.152 16.0956 111.553 16.213 111.888 16.4478C112.223 16.6827 112.48 17.0236 112.658 17.4706C112.838 17.9175 112.928 18.4573 112.928 19.0899C112.928 19.7262 112.838 20.2698 112.658 20.7206C112.48 21.1694 112.223 21.5122 111.888 21.749C111.555 21.9857 111.154 22.1041 110.686 22.1041ZM110.686 21.2149C111.05 21.2149 111.337 21.0359 111.547 20.6779C111.759 20.3181 111.865 19.7887 111.865 19.0899C111.865 18.6278 111.817 18.2395 111.72 17.9251C111.624 17.6107 111.487 17.374 111.311 17.2149C111.135 17.0539 110.927 16.9734 110.686 16.9734C110.324 16.9734 110.038 17.1533 109.828 17.5132C109.618 17.8711 109.512 18.3967 109.51 19.0899C109.508 19.5539 109.555 19.944 109.649 20.2603C109.746 20.5766 109.882 20.8153 110.058 20.9762C110.234 21.1353 110.444 21.2149 110.686 21.2149ZM116.805 20.624L116.802 19.3825H116.967L118.535 17.6296H119.737L117.808 19.7774H117.595L116.805 20.624ZM115.867 21.9933V16.1751H116.896V21.9933H115.867ZM118.606 21.9933L117.185 20.0075L117.879 19.2831L119.836 21.9933H118.606Z" fill="white"/>
<mask id="path-7-inside-3_0_1493" fill="white">
<path fill-rule="evenodd" clip-rule="evenodd" d="M147 36.9995C147 36.9994 147 36.9993 147 36.9992L157.43 23.3597C159.624 20.4912 159.624 16.5089 157.43 13.6404L147 0.000831918C147 0.000741651 147 0.000631174 147 0.000517538C147 0.000231709 147 0 147.001 0H198.872C198.872 0 198.873 0.000327479 198.873 0.000731444C198.873 0.000890361 198.873 0.0010446 198.873 0.00117149L209.19 13.6833C211.341 16.5346 211.341 20.4656 209.19 23.3168L198.873 36.9989C198.873 36.999 198.873 36.9992 198.873 36.9993C198.873 36.9997 198.872 37 198.872 37H198.872H147.001C147 37 147 36.9998 147 36.9995Z"/>
</mask>
<path fill-rule="evenodd" clip-rule="evenodd" d="M147 36.9995C147 36.9994 147 36.9993 147 36.9992L157.43 23.3597C159.624 20.4912 159.624 16.5089 157.43 13.6404L147 0.000831918C147 0.000741651 147 0.000631174 147 0.000517538C147 0.000231709 147 0 147.001 0H198.872C198.872 0 198.873 0.000327479 198.873 0.000731444C198.873 0.000890361 198.873 0.0010446 198.873 0.00117149L209.19 13.6833C211.341 16.5346 211.341 20.4656 209.19 23.3168L198.873 36.9989C198.873 36.999 198.873 36.9992 198.873 36.9993C198.873 36.9997 198.872 37 198.872 37H198.872H147.001C147 37 147 36.9998 147 36.9995Z" fill="white" fill-opacity="0.16"/>
<path d="M198.873 36.9989L198.074 36.3968L198.873 36.9989ZM209.19 13.6833L209.989 13.0813L209.19 13.6833ZM209.19 23.3168L208.392 22.7147L209.19 23.3168ZM198.873 0.00117149L198.074 0.603261L198.873 0.00117149ZM147 36.9992L146.206 36.3917L147 36.9992ZM156.636 22.7522L146.206 36.3917L147.794 37.6066L158.225 23.9671L156.636 22.7522ZM146.206 0.608286L156.636 14.2478L158.225 13.0329L147.794 -0.606623L146.206 0.608286ZM198.872 -1H147.001V1H198.872V-1ZM209.989 13.0813L199.671 -0.600918L198.074 0.603261L208.392 14.2854L209.989 13.0813ZM199.671 37.601L209.989 23.9189L208.392 22.7147L198.074 36.3968L199.671 37.601ZM198.872 38H198.872V36H198.872V38ZM147.001 38H198.872V36H147.001V38ZM197.873 36.9993C197.873 36.4474 198.32 36 198.872 36V38C199.425 38 199.873 37.552 199.873 36.9993H197.873ZM198.074 36.3968C197.944 36.5704 197.873 36.7819 197.873 36.9993H199.873C199.873 37.2164 199.802 37.4276 199.671 37.601L198.074 36.3968ZM208.392 14.2854C210.273 16.7803 210.273 20.2199 208.392 22.7147L209.989 23.9189C212.408 20.7112 212.408 16.2889 209.989 13.0813L208.392 14.2854ZM197.873 0.000731444C197.873 0.217528 197.943 0.429163 198.074 0.603261L199.671 -0.600918C199.802 -0.427074 199.873 -0.215747 199.873 0.000731444H197.873ZM148 0.000517538C148 0.557246 147.548 1 147.001 1V-1C146.453 -1 146 -0.556783 146 0.000517538H148ZM147.794 -0.606623C147.928 -0.432296 148 -0.218939 148 0.000517538H146C146 0.220202 146.072 0.433779 146.206 0.608286L147.794 -0.606623ZM146.206 36.3917C146.071 36.5673 146 36.7812 146 36.9995H148C148 37.2175 147.929 37.4312 147.794 37.6066L146.206 36.3917ZM198.872 1C198.329 1 197.873 0.561088 197.873 0.000731444H199.873C199.873 -0.560433 199.416 -1 198.872 -1V1ZM147.001 36C147.553 36 148 36.4475 148 36.9995H146C146 37.5521 146.448 38 147.001 38V36ZM158.225 23.9671C160.693 20.7401 160.693 16.26 158.225 13.0329L156.636 14.2478C158.555 16.7578 158.555 20.2423 156.636 22.7522L158.225 23.9671Z" fill="white" fill-opacity="0.5" mask="url(#path-7-inside-3_0_1493)"/>
<path d="M176.853 16.4905V22.3087H175.799V17.5161H175.765L174.404 18.3854V17.4195L175.85 16.4905H176.853ZM180.372 16.4905H181.661L183.389 20.7064H183.457L185.184 16.4905H186.474V22.3087H185.463V18.3116H185.409L183.801 22.2917H183.045L181.437 18.303H181.383V22.3087H180.372V16.4905Z" fill="white"/>
<mask id="path-10-inside-4_0_1493" fill="white">
<path fill-rule="evenodd" clip-rule="evenodd" d="M220.5 36.9997C220.5 36.9997 220.5 36.9996 220.5 36.9996L230.931 23.3597C233.124 20.4912 233.124 16.5089 230.931 13.6404L220.5 0.0004236C220.5 0.000377637 220.5 0.000321384 220.5 0.000263522C220.5 0.000117983 220.5 0 220.5 0H272.372C272.372 0 272.373 0.00029524 272.373 0.000659438C272.373 0.00080271 272.373 0.000942237 272.373 0.00105663L282.69 13.6834C284.841 16.5346 284.841 20.4656 282.69 23.3168L272.373 36.999C272.373 36.9991 272.373 36.9993 272.373 36.9994C272.373 36.9997 272.372 37 272.372 37H272.372H220.5C220.5 37 220.5 36.9999 220.5 36.9997Z"/>
</mask>
<path fill-rule="evenodd" clip-rule="evenodd" d="M220.5 36.9997C220.5 36.9997 220.5 36.9996 220.5 36.9996L230.931 23.3597C233.124 20.4912 233.124 16.5089 230.931 13.6404L220.5 0.0004236C220.5 0.000377637 220.5 0.000321384 220.5 0.000263522C220.5 0.000117983 220.5 0 220.5 0H272.372C272.372 0 272.373 0.00029524 272.373 0.000659438C272.373 0.00080271 272.373 0.000942237 272.373 0.00105663L282.69 13.6834C284.841 16.5346 284.841 20.4656 282.69 23.3168L272.373 36.999C272.373 36.9991 272.373 36.9993 272.373 36.9994C272.373 36.9997 272.372 37 272.372 37H272.372H220.5C220.5 37 220.5 36.9999 220.5 36.9997Z" fill="white" fill-opacity="0.16"/>
<path d="M272.373 36.999L273.171 37.6011L272.373 36.999ZM272.373 0.00105663L271.574 0.603145L272.373 0.00105663ZM220.5 36.9996L221.294 37.607L220.5 36.9996ZM230.931 23.3597L230.136 22.7522L230.931 23.3597ZM230.136 22.7522L219.706 36.3921L221.294 37.607L231.725 23.9671L230.136 22.7522ZM219.706 0.607878L230.136 14.2478L231.725 13.0329L221.294 -0.607031L219.706 0.607878ZM272.372 -1H220.5V1H272.372V-1ZM283.489 13.0813L273.171 -0.601032L271.574 0.603145L281.892 14.2854L283.489 13.0813ZM273.171 37.6011L283.489 23.9189L281.892 22.7147L271.574 36.3969L273.171 37.6011ZM272.372 38H272.372V36H272.372V38ZM220.5 38H272.372V36H220.5V38ZM271.373 36.9994C271.373 36.444 271.824 36 272.372 36V38C272.921 38 273.373 37.5555 273.373 36.9994H271.373ZM271.574 36.3969C271.443 36.5705 271.373 36.782 271.373 36.9994H273.373C273.373 37.2165 273.302 37.4277 273.171 37.6011L271.574 36.3969ZM281.892 14.2854C283.773 16.7803 283.773 20.2199 281.892 22.7147L283.489 23.9189C285.908 20.7112 285.908 16.2889 283.489 13.0813L281.892 14.2854ZM271.373 0.000659438C271.373 0.218368 271.444 0.429801 271.574 0.603145L273.171 -0.601032C273.302 -0.427917 273.373 -0.216763 273.373 0.000659438H271.373ZM221.5 0.000263522C221.5 0.548843 221.056 1 220.5 1V-1C219.944 -1 219.5 -0.548607 219.5 0.000263522H221.5ZM221.294 -0.607031C221.428 -0.43266 221.5 -0.219249 221.5 0.000263522H219.5C219.5 0.219892 219.572 0.433415 219.706 0.607878L221.294 -0.607031ZM220.5 36C221.052 36 221.5 36.4476 221.5 36.9997H219.5C219.5 37.5522 219.948 38 220.5 38V36ZM219.706 36.3921C219.573 36.565 219.5 36.7781 219.5 36.9997H221.5C221.5 37.2212 221.427 37.4342 221.294 37.607L219.706 36.3921ZM272.372 1C271.829 1 271.373 0.561054 271.373 0.000659438H273.373C273.373 -0.560464 272.916 -1 272.372 -1V1ZM231.725 23.9671C234.193 20.7401 234.193 16.26 231.725 13.0329L230.136 14.2478C232.056 16.7578 232.056 20.2423 230.136 22.7522L231.725 23.9671Z" fill="white" fill-opacity="0.5" mask="url(#path-10-inside-4_0_1493)"/>
<path d="M248.611 16.6818V22.5H247.557V17.7074H247.523L246.162 18.5767V17.6108L247.608 16.6818H248.611ZM252.239 22.6108C251.771 22.6108 251.37 22.4924 251.034 22.2557C250.701 22.017 250.444 21.6733 250.264 21.2244C250.086 20.7737 249.997 20.2311 249.997 19.5966C249.999 18.9621 250.089 18.4223 250.267 17.9773C250.447 17.5303 250.704 17.1894 251.037 16.9545C251.372 16.7197 251.773 16.6023 252.239 16.6023C252.705 16.6023 253.105 16.7197 253.441 16.9545C253.776 17.1894 254.032 17.5303 254.21 17.9773C254.39 18.4242 254.48 18.964 254.48 19.5966C254.48 20.233 254.39 20.7765 254.21 21.2273C254.032 21.6761 253.776 22.0189 253.441 22.2557C253.107 22.4924 252.707 22.6108 252.239 22.6108ZM252.239 21.7216C252.603 21.7216 252.889 21.5426 253.1 21.1847C253.312 20.8248 253.418 20.2955 253.418 19.5966C253.418 19.1345 253.37 18.7462 253.273 18.4318C253.176 18.1174 253.04 17.8807 252.864 17.7216C252.688 17.5606 252.479 17.4801 252.239 17.4801C251.877 17.4801 251.591 17.66 251.381 18.0199C251.171 18.3778 251.065 18.9034 251.063 19.5966C251.061 20.0606 251.107 20.4508 251.202 20.767C251.299 21.0833 251.435 21.322 251.611 21.483C251.787 21.642 251.996 21.7216 252.239 21.7216ZM257.465 16.6818H258.755L260.483 20.8977H260.551L262.278 16.6818H263.568V22.5H262.556V18.5028H262.502L260.894 22.483H260.139L258.531 18.4943H258.477V22.5H257.465V16.6818Z" fill="white"/>
<mask id="path-13-inside-5_0_1493" fill="white">
<path fill-rule="evenodd" clip-rule="evenodd" d="M294 36.999C294 36.9987 294 36.9985 294 36.9983L304.914 23.5385C307.295 20.6016 307.295 16.3985 304.914 13.4616L294 0.00169749C294 0.00151197 294 0.00128038 294 0.00104153C294 0.00046631 294 0 294.001 0H356C360.418 0 364 3.58172 364 8V29C364 33.4183 360.418 37 356 37H294.001C294 37 294 36.9995 294 36.999Z"/>
</mask>
<path fill-rule="evenodd" clip-rule="evenodd" d="M294 36.999C294 36.9987 294 36.9985 294 36.9983L304.914 23.5385C307.295 20.6016 307.295 16.3985 304.914 13.4616L294 0.00169749C294 0.00151197 294 0.00128038 294 0.00104153C294 0.00046631 294 0 294.001 0H356C360.418 0 364 3.58172 364 8V29C364 33.4183 360.418 37 356 37H294.001C294 37 294 36.9995 294 36.999Z" fill="white" fill-opacity="0.16"/>
<path d="M294 0.00169749L293.223 0.631499L294 0.00169749ZM294 36.9983L293.223 36.3685L294 36.9983ZM304.137 22.9087L293.223 36.3685L294.777 37.6281L305.69 24.1683L304.137 22.9087ZM293.223 0.631499L304.137 14.0914L305.69 12.8318L294.777 -0.628104L293.223 0.631499ZM294.001 1H356V-1H294.001V1ZM363 8V29H365V8H363ZM356 36H294.001V38H356V36ZM294.001 36C294.555 36 295 36.4495 295 36.999H293C293 37.5496 293.446 38 294.001 38V36ZM363 29C363 32.866 359.866 36 356 36V38C360.971 38 365 33.9706 365 29H363ZM356 1C359.866 1 363 4.13401 363 8H365C365 3.02944 360.971 -1 356 -1V1ZM295 0.00104153C295 0.552751 294.553 1 294.001 1V-1C293.448 -1 293 -0.551818 293 0.00104153H295ZM294.777 -0.628104C294.921 -0.450163 295 -0.22804 295 0.00104153H293C293 0.230601 293.079 0.453187 293.223 0.631499L294.777 -0.628104ZM293.223 36.3685C293.079 36.5467 293 36.7693 293 36.999H295C295 37.2281 294.921 37.4502 294.777 37.6281L293.223 36.3685ZM305.69 24.1683C308.369 20.8642 308.369 16.1358 305.69 12.8318L304.137 14.0914C306.221 16.6612 306.221 20.3389 304.137 22.9087L305.69 24.1683Z" fill="white" fill-opacity="0.5" mask="url(#path-13-inside-5_0_1493)"/>
<path d="M321.489 12.2066V18.0248H320.435V13.2322H320.401L319.04 14.1015V13.1356L320.486 12.2066H321.489ZM325.117 18.1356C324.649 18.1356 324.248 18.0172 323.912 17.7805C323.579 17.5418 323.322 17.1981 323.142 16.7492C322.964 16.2985 322.875 15.7558 322.875 15.1214C322.877 14.4869 322.967 13.9471 323.145 13.5021C323.325 13.0551 323.582 12.7142 323.915 12.4793C324.25 12.2445 324.651 12.1271 325.117 12.1271C325.583 12.1271 325.983 12.2445 326.319 12.4793C326.654 12.7142 326.91 13.0551 327.088 13.5021C327.268 13.949 327.358 14.4888 327.358 15.1214C327.358 15.7577 327.268 16.3013 327.088 16.7521C326.91 17.2009 326.654 17.5437 326.319 17.7805C325.985 18.0172 325.585 18.1356 325.117 18.1356ZM325.117 17.2464C325.48 17.2464 325.767 17.0674 325.978 16.7094C326.19 16.3496 326.296 15.8202 326.296 15.1214C326.296 14.6592 326.248 14.271 326.151 13.9566C326.054 13.6422 325.918 13.4055 325.742 13.2464C325.566 13.0854 325.357 13.0049 325.117 13.0049C324.755 13.0049 324.469 13.1848 324.259 13.5447C324.049 13.9026 323.943 14.4282 323.941 15.1214C323.939 15.5854 323.985 15.9755 324.08 16.2918C324.177 16.6081 324.313 16.8467 324.489 17.0077C324.665 17.1668 324.874 17.2464 325.117 17.2464ZM330.453 18.1356C329.985 18.1356 329.583 18.0172 329.248 17.7805C328.915 17.5418 328.658 17.1981 328.478 16.7492C328.3 16.2985 328.211 15.7558 328.211 15.1214C328.213 14.4869 328.303 13.9471 328.481 13.5021C328.661 13.0551 328.918 12.7142 329.251 12.4793C329.586 12.2445 329.987 12.1271 330.453 12.1271C330.919 12.1271 331.319 12.2445 331.654 12.4793C331.99 12.7142 332.246 13.0551 332.424 13.5021C332.604 13.949 332.694 14.4888 332.694 15.1214C332.694 15.7577 332.604 16.3013 332.424 16.7521C332.246 17.2009 331.99 17.5437 331.654 17.7805C331.321 18.0172 330.921 18.1356 330.453 18.1356ZM330.453 17.2464C330.816 17.2464 331.103 17.0674 331.314 16.7094C331.526 16.3496 331.632 15.8202 331.632 15.1214C331.632 14.6592 331.583 14.271 331.487 13.9566C331.39 13.6422 331.254 13.4055 331.078 13.2464C330.902 13.0854 330.693 13.0049 330.453 13.0049C330.091 13.0049 329.805 13.1848 329.595 13.5447C329.385 13.9026 329.279 14.4282 329.277 15.1214C329.275 15.5854 329.321 15.9755 329.416 16.2918C329.512 16.6081 329.649 16.8467 329.825 17.0077C330.001 17.1668 330.21 17.2464 330.453 17.2464ZM335.679 12.2066H336.969L338.696 16.4225H338.765L340.492 12.2066H341.782V18.0248H340.77V14.0276H340.716L339.108 18.0077H338.353L336.745 14.0191H336.691V18.0248H335.679V12.2066ZM346.607 18.11C346.209 18.11 345.867 18.038 345.581 17.8941C345.295 17.7502 345.075 17.556 344.919 17.3117C344.766 17.0655 344.689 16.788 344.689 16.4793C344.689 16.2464 344.737 16.0399 344.831 15.86C344.928 15.6801 345.061 15.5134 345.229 15.36C345.4 15.2066 345.596 15.0541 345.82 14.9026L346.851 14.2009C347.003 14.1024 347.117 13.9983 347.195 13.8884C347.275 13.7786 347.314 13.6498 347.314 13.5021C347.314 13.3771 347.261 13.2587 347.155 13.1469C347.051 13.0352 346.907 12.9793 346.723 12.9793C346.6 12.9793 346.491 13.0087 346.397 13.0674C346.304 13.1242 346.231 13.199 346.178 13.2918C346.127 13.3846 346.101 13.4831 346.101 13.5873C346.101 13.7142 346.136 13.843 346.206 13.9736C346.278 14.1043 346.371 14.2397 346.485 14.3799C346.6 14.52 346.723 14.6687 346.854 14.8259L349.584 18.0248H348.471L346.203 15.4282C346.035 15.2312 345.872 15.0371 345.715 14.8458C345.56 14.6545 345.432 14.4557 345.331 14.2492C345.233 14.0409 345.184 13.8155 345.184 13.5731C345.184 13.2985 345.247 13.0532 345.374 12.8373C345.501 12.6195 345.678 12.4481 345.905 12.3231C346.134 12.1981 346.402 12.1356 346.709 12.1356C347.016 12.1356 347.279 12.1962 347.499 12.3174C347.719 12.4386 347.888 12.5996 348.007 12.8003C348.127 13.0011 348.186 13.2199 348.186 13.4566C348.186 13.7312 348.118 13.9774 347.982 14.1952C347.846 14.4111 347.656 14.6072 347.414 14.7833L346.238 15.6441C346.044 15.7842 345.906 15.9263 345.823 16.0702C345.739 16.2123 345.698 16.3335 345.698 16.4339C345.698 16.5873 345.737 16.7265 345.814 16.8515C345.892 16.9765 346.001 17.0769 346.141 17.1526C346.283 17.2265 346.449 17.2634 346.638 17.2634C346.846 17.2634 347.052 17.217 347.255 17.1242C347.457 17.0295 347.642 16.895 347.809 16.7208C347.975 16.5466 348.108 16.3382 348.206 16.0958C348.305 15.8515 348.354 15.5807 348.354 15.2833H349.238C349.238 15.6507 349.197 15.9708 349.115 16.2435C349.034 16.5144 348.929 16.7435 348.8 16.931C348.671 17.1166 348.535 17.2653 348.391 17.3771C348.346 17.4092 348.302 17.4414 348.26 17.4736C348.219 17.5058 348.175 17.538 348.13 17.5702C347.925 17.7558 347.686 17.8922 347.411 17.9793C347.138 18.0664 346.87 18.11 346.607 18.11ZM320.25 27.0248V21.2066H321.278V23.3827H321.321C321.374 23.2767 321.449 23.164 321.545 23.0447C321.642 22.9235 321.772 22.8202 321.937 22.735C322.102 22.6479 322.312 22.6043 322.568 22.6043C322.905 22.6043 323.209 22.6905 323.48 22.8628C323.753 23.0333 323.968 23.2861 324.128 23.6214C324.288 23.9547 324.369 24.3638 324.369 24.8486C324.369 25.3278 324.29 25.735 324.133 26.0702C323.976 26.4055 323.762 26.6611 323.491 26.8373C323.22 27.0134 322.913 27.1015 322.571 27.1015C322.321 27.1015 322.113 27.0598 321.949 26.9765C321.784 26.8932 321.651 26.7928 321.551 26.6753C321.452 26.556 321.376 26.4433 321.321 26.3373H321.261V27.0248H320.25ZM321.258 24.843C321.258 25.1252 321.298 25.3723 321.378 25.5844C321.459 25.7966 321.575 25.9623 321.727 26.0816C321.88 26.199 322.066 26.2577 322.284 26.2577C322.511 26.2577 322.701 26.1971 322.855 26.0759C323.008 25.9528 323.124 25.7852 323.201 25.5731C323.281 25.3591 323.321 25.1157 323.321 24.843C323.321 24.5721 323.282 24.3316 323.204 24.1214C323.127 23.9111 323.011 23.7464 322.858 23.6271C322.704 23.5077 322.513 23.4481 322.284 23.4481C322.064 23.4481 321.878 23.5058 321.724 23.6214C321.571 23.7369 321.454 23.8988 321.375 24.1072C321.297 24.3155 321.258 24.5608 321.258 24.843ZM327.175 27.11C326.738 27.11 326.36 27.0191 326.042 26.8373C325.725 26.6536 325.482 26.3941 325.311 26.0589C325.141 25.7217 325.056 25.325 325.056 24.8685C325.056 24.4197 325.141 24.0257 325.311 23.6867C325.484 23.3458 325.724 23.0807 326.033 22.8913C326.342 22.7 326.704 22.6043 327.121 22.6043C327.39 22.6043 327.644 22.6479 327.882 22.735C328.123 22.8202 328.335 22.9528 328.519 23.1327C328.704 23.3127 328.85 23.5418 328.956 23.8202C329.062 24.0967 329.115 24.4263 329.115 24.8089V25.1242H325.539V24.431H328.13C328.128 24.2341 328.085 24.0589 328.002 23.9055C327.918 23.7502 327.802 23.628 327.652 23.539C327.505 23.45 327.332 23.4055 327.135 23.4055C326.925 23.4055 326.74 23.4566 326.581 23.5589C326.422 23.6592 326.298 23.7918 326.209 23.9566C326.122 24.1195 326.078 24.2985 326.076 24.4935V25.0986C326.076 25.3524 326.122 25.5702 326.215 25.7521C326.308 25.932 326.437 26.0702 326.604 26.1668C326.771 26.2615 326.966 26.3089 327.189 26.3089C327.339 26.3089 327.474 26.288 327.596 26.2464C327.717 26.2028 327.822 26.1394 327.911 26.056C328 25.9727 328.067 25.8695 328.113 25.7464L329.073 25.8543C329.012 26.1081 328.897 26.3297 328.726 26.5191C328.558 26.7066 328.342 26.8524 328.078 26.9566C327.815 27.0589 327.514 27.11 327.175 27.11ZM330.5 28.6611C330.36 28.6611 330.23 28.6498 330.11 28.6271C329.993 28.6062 329.899 28.5816 329.829 28.5532L330.068 27.7521C330.217 27.7956 330.351 27.8164 330.468 27.8146C330.586 27.8127 330.689 27.7757 330.778 27.7038C330.869 27.6337 330.946 27.5163 331.008 27.3515L331.096 27.1157L329.514 22.6611H330.605L331.61 25.9566H331.656L332.664 22.6611H333.758L332.011 27.5532C331.93 27.7842 331.822 27.9822 331.687 28.1469C331.553 28.3136 331.388 28.4405 331.193 28.5276C331 28.6166 330.769 28.6611 330.5 28.6611ZM336.225 27.11C335.799 27.11 335.429 27.0163 335.117 26.8288C334.804 26.6413 334.562 26.3789 334.39 26.0418C334.219 25.7047 334.134 25.3108 334.134 24.86C334.134 24.4092 334.219 24.0144 334.39 23.6753C334.562 23.3363 334.804 23.0731 335.117 22.8856C335.429 22.6981 335.799 22.6043 336.225 22.6043C336.651 22.6043 337.02 22.6981 337.333 22.8856C337.645 23.0731 337.887 23.3363 338.057 23.6753C338.23 24.0144 338.316 24.4092 338.316 24.86C338.316 25.3108 338.23 25.7047 338.057 26.0418C337.887 26.3789 337.645 26.6413 337.333 26.8288C337.02 27.0163 336.651 27.11 336.225 27.11ZM336.23 26.2861C336.462 26.2861 336.655 26.2227 336.81 26.0958C336.965 25.967 337.081 25.7947 337.157 25.5788C337.234 25.3628 337.273 25.1223 337.273 24.8572C337.273 24.5901 337.234 24.3486 337.157 24.1327C337.081 23.9149 336.965 23.7416 336.81 23.6128C336.655 23.4841 336.462 23.4197 336.23 23.4197C335.994 23.4197 335.797 23.4841 335.64 23.6128C335.484 23.7416 335.368 23.9149 335.29 24.1327C335.214 24.3486 335.177 24.5901 335.177 24.8572C335.177 25.1223 335.214 25.3628 335.29 25.5788C335.368 25.7947 335.484 25.967 335.64 26.0958C335.797 26.2227 335.994 26.2861 336.23 26.2861ZM340.217 24.468V27.0248H339.189V22.6611H340.172V23.4026H340.223C340.323 23.1583 340.483 22.9642 340.703 22.8202C340.924 22.6763 341.198 22.6043 341.524 22.6043C341.825 22.6043 342.087 22.6687 342.311 22.7975C342.536 22.9263 342.71 23.1128 342.833 23.3572C342.958 23.6015 343.02 23.8979 343.018 24.2464V27.0248H341.99V24.4055C341.99 24.1138 341.914 23.8856 341.762 23.7208C341.613 23.556 341.405 23.4736 341.14 23.4736C340.96 23.4736 340.8 23.5134 340.66 23.593C340.522 23.6706 340.413 23.7833 340.333 23.931C340.256 24.0788 340.217 24.2577 340.217 24.468ZM345.683 27.1015C345.34 27.1015 345.033 27.0134 344.762 26.8373C344.492 26.6611 344.278 26.4055 344.12 26.0702C343.963 25.735 343.885 25.3278 343.885 24.8486C343.885 24.3638 343.964 23.9547 344.123 23.6214C344.284 23.2861 344.501 23.0333 344.774 22.8628C345.047 22.6905 345.351 22.6043 345.686 22.6043C345.941 22.6043 346.152 22.6479 346.316 22.735C346.481 22.8202 346.612 22.9235 346.708 23.0447C346.805 23.164 346.88 23.2767 346.933 23.3827H346.976V21.2066H348.007V27.0248H346.995V26.3373H346.933C346.88 26.4433 346.803 26.556 346.703 26.6753C346.602 26.7928 346.47 26.8932 346.305 26.9765C346.14 27.0598 345.933 27.1015 345.683 27.1015ZM345.97 26.2577C346.188 26.2577 346.373 26.199 346.527 26.0816C346.68 25.9623 346.797 25.7966 346.876 25.5844C346.956 25.3723 346.995 25.1252 346.995 24.843C346.995 24.5608 346.956 24.3155 346.876 24.1072C346.798 23.8988 346.683 23.7369 346.529 23.6214C346.378 23.5058 346.191 23.4481 345.97 23.4481C345.741 23.4481 345.549 23.5077 345.396 23.6271C345.243 23.7464 345.127 23.9111 345.049 24.1214C344.972 24.3316 344.933 24.5721 344.933 24.843C344.933 25.1157 344.972 25.3591 345.049 25.5731C345.129 25.7852 345.245 25.9528 345.399 26.0759C345.554 26.1971 345.744 26.2577 345.97 26.2577Z" fill="white"/>
</svg>
