<svg width="1090" height="60" viewBox="0 0 1090 60" fill="none" xmlns="http://www.w3.org/2000/svg">
<mask id="path-1-inside-1_0_1222" fill="white">
<path fill-rule="evenodd" clip-rule="evenodd" d="M134.236 1.88966C132.792 0.669455 130.963 0 129.072 0H8C3.58172 0 0 3.58172 0 8V52C0 56.4183 3.58172 60 8 60H129.072C130.963 60 132.792 59.3306 134.236 58.1104L160.269 36.1105C164.051 32.9146 164.051 27.0856 160.269 23.8897L134.236 1.88966Z"/>
</mask>
<path fill-rule="evenodd" clip-rule="evenodd" d="M134.236 1.88966C132.792 0.669455 130.963 0 129.072 0H8C3.58172 0 0 3.58172 0 8V52C0 56.4183 3.58172 60 8 60H129.072C130.963 60 132.792 59.3306 134.236 58.1104L160.269 36.1105C164.051 32.9146 164.051 27.0856 160.269 23.8897L134.236 1.88966Z" fill="white" fill-opacity="0.16"/>
<path d="M160.269 36.1105L159.624 35.3467L160.269 36.1105ZM160.269 23.8897L159.624 24.6535L160.269 23.8897ZM134.236 58.1104L134.882 58.8742L134.236 58.1104ZM134.236 1.88966L134.882 1.12586L134.236 1.88966ZM8 1H129.072V-1H8V1ZM1 52V8H-1V52H1ZM129.072 59H8V61H129.072V59ZM159.624 35.3467L133.591 57.3466L134.882 58.8742L160.915 36.8742L159.624 35.3467ZM133.591 2.65345L159.624 24.6535L160.915 23.1259L134.882 1.12586L133.591 2.65345ZM160.915 36.8742C165.169 33.2789 165.169 26.7213 160.915 23.1259L159.624 24.6535C162.933 27.4499 162.933 32.5503 159.624 35.3467L160.915 36.8742ZM129.072 61C131.199 61 133.257 60.2469 134.882 58.8742L133.591 57.3466C132.327 58.4142 130.727 59 129.072 59V61ZM-1 52C-1 56.9706 3.02944 61 8 61V59C4.13401 59 1 55.866 1 52H-1ZM129.072 1C130.727 1 132.327 1.58577 133.591 2.65345L134.882 1.12586C133.257 -0.246864 131.199 -1 129.072 -1V1ZM8 -1C3.02944 -1 -1 3.02944 -1 8H1C1 4.13401 4.13401 1 8 1V-1Z" fill="white" fill-opacity="0.5" mask="url(#path-1-inside-1_0_1222)"/>
<path d="M56.2088 22.4545V37H53.5739V25.0185H53.4886L50.0866 27.1918V24.777L53.7017 22.4545H56.2088ZM65.2784 37.277C64.1089 37.277 63.1051 36.9811 62.267 36.3892C61.4337 35.7926 60.7921 34.9332 60.3423 33.8111C59.8973 32.6842 59.6747 31.3277 59.6747 29.7415C59.6795 28.1553 59.9044 26.8059 60.3494 25.6932C60.7992 24.5758 61.4408 23.7235 62.2741 23.1364C63.1122 22.5492 64.1136 22.2557 65.2784 22.2557C66.4432 22.2557 67.4446 22.5492 68.2827 23.1364C69.1207 23.7235 69.7623 24.5758 70.2074 25.6932C70.6572 26.8106 70.8821 28.16 70.8821 29.7415C70.8821 31.3324 70.6572 32.6913 70.2074 33.8182C69.7623 34.9403 69.1207 35.7973 68.2827 36.3892C67.4493 36.9811 66.4479 37.277 65.2784 37.277ZM65.2784 35.054C66.1875 35.054 66.9048 34.6065 67.4304 33.7116C67.9607 32.812 68.2259 31.4886 68.2259 29.7415C68.2259 28.5862 68.1051 27.6155 67.8636 26.8295C67.6222 26.0436 67.2813 25.4517 66.8409 25.054C66.4006 24.6515 65.8797 24.4503 65.2784 24.4503C64.3741 24.4503 63.6591 24.9001 63.1335 25.7997C62.608 26.6946 62.3428 28.0085 62.3381 29.7415C62.3333 30.9015 62.4493 31.8769 62.6861 32.6676C62.9276 33.4583 63.2685 34.0549 63.7088 34.4574C64.1491 34.8551 64.6723 35.054 65.2784 35.054ZM78.6183 37.277C77.4487 37.277 76.445 36.9811 75.6069 36.3892C74.7736 35.7926 74.132 34.9332 73.6822 33.8111C73.2371 32.6842 73.0146 31.3277 73.0146 29.7415C73.0193 28.1553 73.2442 26.8059 73.6893 25.6932C74.1391 24.5758 74.7807 23.7235 75.614 23.1364C76.4521 22.5492 77.4535 22.2557 78.6183 22.2557C79.783 22.2557 80.7844 22.5492 81.6225 23.1364C82.4606 23.7235 83.1022 24.5758 83.5472 25.6932C83.997 26.8106 84.2219 28.16 84.2219 29.7415C84.2219 31.3324 83.997 32.6913 83.5472 33.8182C83.1022 34.9403 82.4606 35.7973 81.6225 36.3892C80.7892 36.9811 79.7878 37.277 78.6183 37.277ZM78.6183 35.054C79.5273 35.054 80.2447 34.6065 80.7702 33.7116C81.3005 32.812 81.5657 31.4886 81.5657 29.7415C81.5657 28.5862 81.445 27.6155 81.2035 26.8295C80.962 26.0436 80.6211 25.4517 80.1808 25.054C79.7404 24.6515 79.2196 24.4503 78.6183 24.4503C77.7139 24.4503 76.9989 24.9001 76.4734 25.7997C75.9478 26.6946 75.6826 28.0085 75.6779 29.7415C75.6732 30.9015 75.7892 31.8769 76.0259 32.6676C76.2674 33.4583 76.6083 34.0549 77.0487 34.4574C77.489 34.8551 78.0122 35.054 78.6183 35.054ZM93.9148 33.5767L93.9077 30.473H94.3196L98.2401 26.0909H101.244L96.4219 31.4602H95.8892L93.9148 33.5767ZM91.571 37V22.4545H94.142V37H91.571ZM98.4176 37L94.8665 32.0355L96.5994 30.2244L101.493 37H98.4176Z" fill="white"/>
<mask id="path-4-inside-2_0_1222" fill="white">
<path fill-rule="evenodd" clip-rule="evenodd" d="M230.106 0H359.178C361.069 0 362.898 0.669456 364.342 1.88966L390.375 23.8897C394.157 27.0856 394.157 32.9146 390.375 36.1105L364.342 58.1104C362.898 59.3306 361.069 60 359.178 60H230.106L258.731 36.1458C262.569 32.9475 262.569 27.0527 258.731 23.8543L230.106 0ZM230.106 0L230.106 60V5.59696e-06C230.106 2.50584e-06 230.106 0 230.106 0Z"/>
</mask>
<path fill-rule="evenodd" clip-rule="evenodd" d="M230.106 0H359.178C361.069 0 362.898 0.669456 364.342 1.88966L390.375 23.8897C394.157 27.0856 394.157 32.9146 390.375 36.1105L364.342 58.1104C362.898 59.3306 361.069 60 359.178 60H230.106L258.731 36.1458C262.569 32.9475 262.569 27.0527 258.731 23.8543L230.106 0ZM230.106 0L230.106 60V5.59696e-06C230.106 2.50584e-06 230.106 0 230.106 0Z" fill="white" fill-opacity="0.16"/>
<path d="M230.106 0V-1H229.106L229.106 -9.32827e-08L230.106 0ZM230.106 60H229.106V61H230.106V60ZM364.342 58.1104L364.987 58.8742L364.342 58.1104ZM390.375 23.8897L389.73 24.6535L390.375 23.8897ZM390.375 36.1105L391.021 36.8743L390.375 36.1105ZM258.731 36.1458L259.371 36.9141L258.731 36.1458ZM364.342 1.88966L364.988 1.12586L364.342 1.88966ZM359.178 -1H230.106V1H359.178V-1ZM391.021 23.126L364.988 1.12586L363.697 2.65345L389.73 24.6535L391.021 23.126ZM364.987 58.8742L391.021 36.8743L389.73 35.3467L363.697 57.3466L364.987 58.8742ZM230.106 61H359.178V59H230.106V61ZM258.091 35.3776L229.466 59.2318L230.746 60.7682L259.371 36.9141L258.091 35.3776ZM229.466 0.76822L258.091 24.6225L259.371 23.0861L230.746 -0.76822L229.466 0.76822ZM231.106 60L231.106 9.32827e-08L229.106 -9.32827e-08L229.106 60H231.106ZM229.106 5.59696e-06V60H231.106V5.59696e-06H229.106ZM231.106 5.59696e-06C231.106 0.552288 230.658 1 230.106 1V-1C229.554 -1 229.106 -0.552283 229.106 5.59696e-06H231.106ZM363.697 57.3466C362.433 58.4142 360.832 59 359.178 59V61C361.305 61 363.363 60.2469 364.987 58.8742L363.697 57.3466ZM389.73 24.6535C393.039 27.4499 393.039 32.5503 389.73 35.3467L391.021 36.8743C395.275 33.2789 395.275 26.7213 391.021 23.126L389.73 24.6535ZM259.371 36.9141C263.689 33.3159 263.689 26.6842 259.371 23.0861L258.091 24.6225C261.449 27.4211 261.449 32.579 258.091 35.3776L259.371 36.9141ZM359.178 1C360.832 1 362.433 1.58577 363.697 2.65345L364.988 1.12586C363.363 -0.246862 361.305 -1 359.178 -1V1Z" fill="white" fill-opacity="0.5" mask="url(#path-4-inside-2_0_1222)"/>
<path d="M299.614 37.1989C298.667 37.1989 297.819 37.0213 297.071 36.6662C296.323 36.3063 295.729 35.8139 295.288 35.1889C294.853 34.5639 294.621 33.849 294.592 33.044H297.149C297.196 33.6406 297.455 34.1283 297.923 34.5071C298.392 34.8812 298.955 35.0682 299.614 35.0682C300.13 35.0682 300.589 34.9498 300.991 34.7131C301.394 34.4763 301.711 34.1473 301.943 33.7259C302.175 33.3045 302.289 32.8239 302.284 32.2841C302.289 31.7348 302.173 31.2472 301.936 30.821C301.699 30.3949 301.375 30.0611 300.963 29.8196C300.551 29.5734 300.078 29.4503 299.543 29.4503C299.107 29.4455 298.678 29.526 298.257 29.6918C297.836 29.8575 297.502 30.0753 297.256 30.3452L294.876 29.9545L295.636 22.4545H304.074V24.6562H297.817L297.398 28.5128H297.483C297.753 28.1955 298.134 27.9328 298.626 27.7244C299.119 27.5114 299.659 27.4048 300.246 27.4048C301.126 27.4048 301.912 27.6132 302.604 28.0298C303.295 28.4418 303.839 29.0099 304.237 29.7344C304.635 30.4588 304.834 31.2874 304.834 32.2202C304.834 33.1813 304.611 34.0384 304.166 34.7912C303.726 35.5393 303.113 36.1288 302.327 36.5597C301.545 36.9858 300.641 37.1989 299.614 37.1989ZM312.589 37.277C311.42 37.277 310.416 36.9811 309.578 36.3892C308.745 35.7926 308.103 34.9332 307.653 33.8111C307.208 32.6842 306.986 31.3277 306.986 29.7415C306.99 28.1553 307.215 26.8059 307.66 25.6932C308.11 24.5758 308.752 23.7235 309.585 23.1364C310.423 22.5492 311.425 22.2557 312.589 22.2557C313.754 22.2557 314.756 22.5492 315.594 23.1364C316.432 23.7235 317.073 24.5758 317.518 25.6932C317.968 26.8106 318.193 28.16 318.193 29.7415C318.193 31.3324 317.968 32.6913 317.518 33.8182C317.073 34.9403 316.432 35.7973 315.594 36.3892C314.76 36.9811 313.759 37.277 312.589 37.277ZM312.589 35.054C313.499 35.054 314.216 34.6065 314.741 33.7116C315.272 32.812 315.537 31.4886 315.537 29.7415C315.537 28.5862 315.416 27.6155 315.175 26.8295C314.933 26.0436 314.592 25.4517 314.152 25.054C313.712 24.6515 313.191 24.4503 312.589 24.4503C311.685 24.4503 310.97 24.9001 310.445 25.7997C309.919 26.6946 309.654 28.0085 309.649 29.7415C309.644 30.9015 309.76 31.8769 309.997 32.6676C310.239 33.4583 310.58 34.0549 311.02 34.4574C311.46 34.8551 311.983 35.054 312.589 35.054ZM325.929 37.277C324.76 37.277 323.756 36.9811 322.918 36.3892C322.085 35.7926 321.443 34.9332 320.993 33.8111C320.548 32.6842 320.326 31.3277 320.326 29.7415C320.33 28.1553 320.555 26.8059 321 25.6932C321.45 24.5758 322.092 23.7235 322.925 23.1364C323.763 22.5492 324.765 22.2557 325.929 22.2557C327.094 22.2557 328.095 22.5492 328.934 23.1364C329.772 23.7235 330.413 24.5758 330.858 25.6932C331.308 26.8106 331.533 28.16 331.533 29.7415C331.533 31.3324 331.308 32.6913 330.858 33.8182C330.413 34.9403 329.772 35.7973 328.934 36.3892C328.1 36.9811 327.099 37.277 325.929 37.277ZM325.929 35.054C326.838 35.054 327.556 34.6065 328.081 33.7116C328.612 32.812 328.877 31.4886 328.877 29.7415C328.877 28.5862 328.756 27.6155 328.515 26.8295C328.273 26.0436 327.932 25.4517 327.492 25.054C327.051 24.6515 326.531 24.4503 325.929 24.4503C325.025 24.4503 324.31 24.9001 323.784 25.7997C323.259 26.6946 322.994 28.0085 322.989 29.7415C322.984 30.9015 323.1 31.8769 323.337 32.6676C323.578 33.4583 323.919 34.0549 324.36 34.4574C324.8 34.8551 325.323 35.054 325.929 35.054ZM341.226 33.5767L341.219 30.473H341.631L345.551 26.0909H348.555L343.733 31.4602H343.2L341.226 33.5767ZM338.882 37V22.4545H341.453V37H338.882ZM345.729 37L342.178 32.0355L343.91 30.2244L348.804 37H345.729Z" fill="white"/>
<mask id="path-7-inside-3_0_1222" fill="white">
<path fill-rule="evenodd" clip-rule="evenodd" d="M460.211 0H589.284C591.174 0 593.004 0.669456 594.448 1.88966L620.481 23.8897C624.263 27.0856 624.263 32.9146 620.481 36.1105L594.448 58.1104C593.004 59.3306 591.174 60 589.284 60H460.211L488.836 36.1458C492.675 32.9475 492.675 27.0527 488.837 23.8543L460.211 0ZM460.211 0L460.211 60V5.59696e-06C460.211 2.50584e-06 460.211 0 460.211 0Z"/>
</mask>
<path fill-rule="evenodd" clip-rule="evenodd" d="M460.211 0H589.284C591.174 0 593.004 0.669456 594.448 1.88966L620.481 23.8897C624.263 27.0856 624.263 32.9146 620.481 36.1105L594.448 58.1104C593.004 59.3306 591.174 60 589.284 60H460.211L488.836 36.1458C492.675 32.9475 492.675 27.0527 488.837 23.8543L460.211 0ZM460.211 0L460.211 60V5.59696e-06C460.211 2.50584e-06 460.211 0 460.211 0Z" fill="white" fill-opacity="0.16"/>
<path d="M460.211 0V-1H459.211L459.211 -9.32827e-08L460.211 0ZM460.211 60H459.211V61H460.211V60ZM594.448 58.1104L595.093 58.8742L594.448 58.1104ZM620.481 23.8897L619.835 24.6535L620.481 23.8897ZM620.481 36.1105L621.126 36.8743L620.481 36.1105ZM488.836 36.1458L489.477 36.9141L488.836 36.1458ZM594.448 1.88966L595.093 1.12586L594.448 1.88966ZM589.284 -1H460.211V1H589.284V-1ZM621.126 23.126L595.093 1.12586L593.802 2.65345L619.835 24.6535L621.126 23.126ZM595.093 58.8742L621.126 36.8743L619.835 35.3467L593.802 57.3466L595.093 58.8742ZM460.211 61H589.284V59H460.211V61ZM488.196 35.3776L459.571 59.2318L460.852 60.7682L489.477 36.9141L488.196 35.3776ZM459.571 0.76822L488.196 24.6225L489.477 23.0861L460.852 -0.76822L459.571 0.76822ZM461.211 60L461.211 9.32827e-08L459.211 -9.32827e-08L459.211 60H461.211ZM459.211 5.59696e-06V60H461.211V5.59696e-06H459.211ZM461.211 5.59696e-06C461.211 0.552288 460.764 1 460.211 1V-1C459.659 -1 459.211 -0.552283 459.211 5.59696e-06H461.211ZM593.802 57.3466C592.539 58.4142 590.938 59 589.284 59V61C591.411 61 593.469 60.2469 595.093 58.8742L593.802 57.3466ZM619.835 24.6535C623.144 27.4499 623.144 32.5503 619.835 35.3467L621.126 36.8743C625.381 33.2789 625.381 26.7213 621.126 23.126L619.835 24.6535ZM489.477 36.9141C493.794 33.3159 493.794 26.6842 489.477 23.0861L488.196 24.6225C491.555 27.4211 491.555 32.579 488.196 35.3776L489.477 36.9141ZM589.284 1C590.938 1 592.539 1.58577 593.802 2.65345L595.093 1.12586C593.469 -0.246862 591.411 -1 589.284 -1V1Z" fill="white" fill-opacity="0.5" mask="url(#path-7-inside-3_0_1222)"/>
<path d="M537.573 22.4545V37H534.938V25.0185H534.852L531.45 27.1918V24.777L535.065 22.4545H537.573ZM546.369 22.4545H549.593L553.911 32.9943H554.082L558.4 22.4545H561.624V37H559.096V27.0071H558.961L554.941 36.9574H553.052L549.032 26.9858H548.897V37H546.369V22.4545Z" fill="white"/>
<mask id="path-10-inside-4_0_1222" fill="white">
<path fill-rule="evenodd" clip-rule="evenodd" d="M690.317 0H819.39C821.28 0 823.11 0.669456 824.553 1.88966L850.587 23.8897C854.369 27.0856 854.369 32.9146 850.587 36.1105L824.553 58.1104C823.11 59.3306 821.28 60 819.39 60H690.317L718.942 36.1458C722.78 32.9475 722.781 27.0527 718.942 23.8543L690.317 0ZM690.317 0L690.317 60V5.59696e-06C690.317 2.50584e-06 690.317 0 690.317 0Z"/>
</mask>
<path fill-rule="evenodd" clip-rule="evenodd" d="M690.317 0H819.39C821.28 0 823.11 0.669456 824.553 1.88966L850.587 23.8897C854.369 27.0856 854.369 32.9146 850.587 36.1105L824.553 58.1104C823.11 59.3306 821.28 60 819.39 60H690.317L718.942 36.1458C722.78 32.9475 722.781 27.0527 718.942 23.8543L690.317 0ZM690.317 0L690.317 60V5.59696e-06C690.317 2.50584e-06 690.317 0 690.317 0Z" fill="white" fill-opacity="0.16"/>
<path d="M690.317 0V-1H689.317L689.317 -9.32827e-08L690.317 0ZM690.317 60H689.317V61H690.317V60ZM824.553 58.1104L825.199 58.8742L824.553 58.1104ZM850.587 23.8897L849.941 24.6535L850.587 23.8897ZM850.587 36.1105L851.232 36.8743L850.587 36.1105ZM718.942 36.1458L719.583 36.9141L718.942 36.1458ZM824.553 1.88966L825.199 1.12586L824.553 1.88966ZM819.39 -1H690.317V1H819.39V-1ZM851.232 23.126L825.199 1.12586L823.908 2.65345L849.941 24.6535L851.232 23.126ZM825.199 58.8742L851.232 36.8743L849.941 35.3467L823.908 57.3466L825.199 58.8742ZM690.317 61H819.39V59H690.317V61ZM718.302 35.3776L689.677 59.2318L690.958 60.7682L719.583 36.9141L718.302 35.3776ZM689.677 0.76822L718.302 24.6225L719.583 23.0861L690.958 -0.76822L689.677 0.76822ZM691.317 60L691.317 9.32827e-08L689.317 -9.32827e-08L689.317 60H691.317ZM689.317 5.59696e-06V60H691.317V5.59696e-06H689.317ZM691.317 5.59696e-06C691.317 0.552288 690.87 1 690.317 1V-1C689.765 -1 689.317 -0.552283 689.317 5.59696e-06H691.317ZM823.908 57.3466C822.645 58.4142 821.044 59 819.39 59V61C821.517 61 823.575 60.2469 825.199 58.8742L823.908 57.3466ZM849.941 24.6535C853.25 27.4499 853.25 32.5503 849.941 35.3467L851.232 36.8743C855.487 33.2789 855.487 26.7213 851.232 23.126L849.941 24.6535ZM719.583 36.9141C723.9 33.3159 723.9 26.6842 719.583 23.0861L718.302 24.6225C721.661 27.4211 721.661 32.579 718.302 35.3776L719.583 36.9141ZM819.39 1C821.044 1 822.645 1.58577 823.908 2.65345L825.199 1.12586C823.575 -0.246862 821.517 -1 819.39 -1V1Z" fill="white" fill-opacity="0.5" mask="url(#path-10-inside-4_0_1222)"/>
<path d="M762.009 22.4545V37H759.374V25.0185H759.288L755.886 27.1918V24.777L759.502 22.4545H762.009ZM771.078 37.277C769.909 37.277 768.905 36.9811 768.067 36.3892C767.234 35.7926 766.592 34.9332 766.142 33.8111C765.697 32.6842 765.475 31.3277 765.475 29.7415C765.479 28.1553 765.704 26.8059 766.149 25.6932C766.599 24.5758 767.241 23.7235 768.074 23.1364C768.912 22.5492 769.913 22.2557 771.078 22.2557C772.243 22.2557 773.244 22.5492 774.082 23.1364C774.921 23.7235 775.562 24.5758 776.007 25.6932C776.457 26.8106 776.682 28.16 776.682 29.7415C776.682 31.3324 776.457 32.6913 776.007 33.8182C775.562 34.9403 774.921 35.7973 774.082 36.3892C773.249 36.9811 772.248 37.277 771.078 37.277ZM771.078 35.054C771.987 35.054 772.705 34.6065 773.23 33.7116C773.761 32.812 774.026 31.4886 774.026 29.7415C774.026 28.5862 773.905 27.6155 773.663 26.8295C773.422 26.0436 773.081 25.4517 772.641 25.054C772.2 24.6515 771.68 24.4503 771.078 24.4503C770.174 24.4503 769.459 24.9001 768.933 25.7997C768.408 26.6946 768.143 28.0085 768.138 29.7415C768.133 30.9015 768.249 31.8769 768.486 32.6676C768.727 33.4583 769.068 34.0549 769.509 34.4574C769.949 34.8551 770.472 35.054 771.078 35.054ZM784.145 22.4545H787.369L791.687 32.9943H791.858L796.176 22.4545H799.4V37H796.872V27.0071H796.737L792.717 36.9574H790.828L786.808 26.9858H786.673V37H784.145V22.4545Z" fill="white"/>
<mask id="path-13-inside-5_0_1222" fill="white">
<path fill-rule="evenodd" clip-rule="evenodd" d="M920.423 0C920.423 0 920.423 4.85164e-07 920.423 3.57628e-06V60H1080.42C1084.84 60 1088.42 56.4183 1088.42 52V8C1088.42 3.58172 1084.84 0 1080.42 0H920.423ZM920.423 0L949.048 23.8543C952.886 27.0527 952.886 32.9475 949.048 36.1458L920.423 60L920.423 0Z"/>
</mask>
<path fill-rule="evenodd" clip-rule="evenodd" d="M920.423 0C920.423 0 920.423 4.85164e-07 920.423 3.57628e-06V60H1080.42C1084.84 60 1088.42 56.4183 1088.42 52V8C1088.42 3.58172 1084.84 0 1080.42 0H920.423ZM920.423 0L949.048 23.8543C952.886 27.0527 952.886 32.9475 949.048 36.1458L920.423 60L920.423 0Z" fill="white" fill-opacity="0.16"/>
<path d="M920.423 60H919.423V61H920.423V60ZM949.048 36.1458L949.688 36.9141L949.048 36.1458ZM921.423 60V3.57628e-06H919.423V60H921.423ZM1080.42 59H920.423V61H1080.42V59ZM1087.42 8V52H1089.42V8H1087.42ZM920.423 1H1080.42V-1H920.423V1ZM919.783 0.76822L948.408 24.6225L949.688 23.0861L921.063 -0.76822L919.783 0.76822ZM948.408 35.3776L919.783 59.2318L921.063 60.7682L949.688 36.9141L948.408 35.3776ZM921.423 60L921.423 9.32827e-08L919.423 -9.32827e-08L919.423 60H921.423ZM1089.42 8C1089.42 3.02944 1085.39 -1 1080.42 -1V1C1084.29 1 1087.42 4.13401 1087.42 8H1089.42ZM1080.42 61C1085.39 61 1089.42 56.9706 1089.42 52H1087.42C1087.42 55.866 1084.29 59 1080.42 59V61ZM948.408 24.6225C951.766 27.4211 951.766 32.579 948.408 35.3776L949.688 36.9141C954.006 33.3159 954.006 26.6842 949.688 23.0861L948.408 24.6225ZM920.423 -1C920.42 -1 920.205 -1.00956 919.975 -0.893983C919.833 -0.822716 919.675 -0.700329 919.562 -0.508041C919.451 -0.320625 919.423 -0.135313 919.423 3.57628e-06H921.423C921.423 0.135319 921.395 0.320629 921.284 0.508044C921.171 0.700332 921.013 0.822718 920.871 0.893984C920.64 1.00956 920.426 1 920.423 1V-1Z" fill="white" fill-opacity="0.5" mask="url(#path-13-inside-5_0_1222)"/>
<path d="M989.492 12.9091V26H987.12V15.2166H987.044L983.982 17.1726V14.9993L987.235 12.9091H989.492ZM997.654 26.2493C996.602 26.2493 995.699 25.983 994.944 25.4503C994.194 24.9134 993.617 24.1399 993.212 23.13C992.811 22.1158 992.611 20.8949 992.611 19.4673C992.615 18.0398 992.818 16.8253 993.218 15.8239C993.623 14.8182 994.201 14.0511 994.951 13.5227C995.705 12.9943 996.606 12.7301 997.654 12.7301C998.703 12.7301 999.604 12.9943 1000.36 13.5227C1001.11 14.0511 1001.69 14.8182 1002.09 15.8239C1002.5 16.8295 1002.7 18.044 1002.7 19.4673C1002.7 20.8991 1002.5 22.1222 1002.09 23.1364C1001.69 24.1463 1001.11 24.9176 1000.36 25.4503C999.608 25.983 998.707 26.2493 997.654 26.2493ZM997.654 24.2486C998.473 24.2486 999.118 23.8459 999.591 23.0405C1000.07 22.2308 1000.31 21.0398 1000.31 19.4673C1000.31 18.4276 1000.2 17.554 999.981 16.8466C999.764 16.1392 999.457 15.6065 999.061 15.2486C998.664 14.8864 998.196 14.7053 997.654 14.7053C996.841 14.7053 996.197 15.1101 995.724 15.9197C995.251 16.7251 995.012 17.9077 995.008 19.4673C995.004 20.5114 995.108 21.3892 995.321 22.1009C995.539 22.8125 995.846 23.3494 996.242 23.7116C996.638 24.0696 997.109 24.2486 997.654 24.2486ZM1009.66 26.2493C1008.61 26.2493 1007.7 25.983 1006.95 25.4503C1006.2 24.9134 1005.62 24.1399 1005.22 23.13C1004.82 22.1158 1004.62 20.8949 1004.62 19.4673C1004.62 18.0398 1004.82 16.8253 1005.22 15.8239C1005.63 14.8182 1006.21 14.0511 1006.96 13.5227C1007.71 12.9943 1008.61 12.7301 1009.66 12.7301C1010.71 12.7301 1011.61 12.9943 1012.36 13.5227C1013.12 14.0511 1013.7 14.8182 1014.1 15.8239C1014.5 16.8295 1014.7 18.044 1014.7 19.4673C1014.7 20.8991 1014.5 22.1222 1014.1 23.1364C1013.7 24.1463 1013.12 24.9176 1012.36 25.4503C1011.61 25.983 1010.71 26.2493 1009.66 26.2493ZM1009.66 24.2486C1010.48 24.2486 1011.12 23.8459 1011.6 23.0405C1012.07 22.2308 1012.31 21.0398 1012.31 19.4673C1012.31 18.4276 1012.2 17.554 1011.99 16.8466C1011.77 16.1392 1011.46 15.6065 1011.07 15.2486C1010.67 14.8864 1010.2 14.7053 1009.66 14.7053C1008.85 14.7053 1008.2 15.1101 1007.73 15.9197C1007.26 16.7251 1007.02 17.9077 1007.01 19.4673C1007.01 20.5114 1007.11 21.3892 1007.33 22.1009C1007.54 22.8125 1007.85 23.3494 1008.25 23.7116C1008.64 24.0696 1009.11 24.2486 1009.66 24.2486ZM1021.42 12.9091H1024.32L1028.21 22.3949H1028.36L1032.25 12.9091H1035.15V26H1032.87V17.0064H1032.75L1029.14 25.9616H1027.44L1023.82 16.9872H1023.7V26H1021.42V12.9091ZM1046.01 26.1918C1045.11 26.1918 1044.34 26.0298 1043.7 25.706C1043.06 25.3821 1042.56 24.9453 1042.21 24.3956C1041.87 23.8416 1041.69 23.2173 1041.69 22.5227C1041.69 21.9986 1041.8 21.5341 1042.01 21.1293C1042.23 20.7244 1042.53 20.3494 1042.91 20.0043C1043.29 19.6591 1043.73 19.3161 1044.24 18.9751L1046.56 17.3963C1046.9 17.1747 1047.16 16.9403 1047.33 16.6932C1047.51 16.446 1047.6 16.1562 1047.6 15.8239C1047.6 15.5426 1047.48 15.2763 1047.24 15.0249C1047.01 14.7734 1046.68 14.6477 1046.27 14.6477C1045.99 14.6477 1045.75 14.7138 1045.53 14.8459C1045.33 14.9737 1045.16 15.142 1045.04 15.3509C1044.93 15.5597 1044.87 15.7812 1044.87 16.0156C1044.87 16.3011 1044.95 16.5909 1045.11 16.8849C1045.27 17.179 1045.48 17.4837 1045.73 17.799C1045.99 18.1143 1046.27 18.4489 1046.56 18.8026L1052.71 26H1050.2L1045.1 20.1577C1044.72 19.7145 1044.35 19.2777 1044 18.8473C1043.65 18.4169 1043.36 17.9695 1043.14 17.505C1042.92 17.0362 1042.8 16.5291 1042.8 15.9837C1042.8 15.3658 1042.95 14.8139 1043.23 14.3281C1043.52 13.8381 1043.92 13.4524 1044.43 13.1712C1044.94 12.8899 1045.55 12.7493 1046.24 12.7493C1046.93 12.7493 1047.52 12.8857 1048.01 13.1584C1048.51 13.4311 1048.89 13.7933 1049.16 14.245C1049.43 14.6967 1049.56 15.1889 1049.56 15.7216C1049.56 16.3395 1049.41 16.8935 1049.1 17.3835C1048.79 17.8693 1048.37 18.3104 1047.82 18.7067L1045.18 20.6435C1044.74 20.9588 1044.43 21.2784 1044.24 21.6023C1044.06 21.9219 1043.96 22.1946 1043.96 22.4205C1043.96 22.7656 1044.05 23.0788 1044.22 23.3601C1044.4 23.6413 1044.64 23.8672 1044.96 24.0376C1045.28 24.2038 1045.65 24.2869 1046.08 24.2869C1046.55 24.2869 1047.01 24.1825 1047.46 23.9737C1047.92 23.7607 1048.34 23.4581 1048.71 23.0661C1049.09 22.674 1049.38 22.2053 1049.61 21.6598C1049.83 21.1101 1049.94 20.5007 1049.94 19.8317H1051.93C1051.93 20.6584 1051.83 21.3786 1051.65 21.9922C1051.47 22.6016 1051.23 23.1172 1050.94 23.5391C1050.65 23.9567 1050.35 24.2912 1050.02 24.5426C1049.92 24.6151 1049.82 24.6875 1049.73 24.7599C1049.63 24.8324 1049.54 24.9048 1049.43 24.9773C1048.97 25.3949 1048.43 25.7017 1047.82 25.8977C1047.2 26.0938 1046.6 26.1918 1046.01 26.1918ZM986.703 47V33.9091H989.017V38.8054H989.113C989.232 38.5668 989.401 38.3132 989.618 38.0447C989.835 37.772 990.129 37.5398 990.5 37.348C990.871 37.152 991.344 37.054 991.919 37.054C992.678 37.054 993.362 37.2479 993.971 37.6357C994.585 38.0192 995.07 38.5881 995.428 39.3423C995.791 40.0923 995.972 41.0128 995.972 42.1037C995.972 43.1818 995.795 44.098 995.441 44.8523C995.088 45.6065 994.606 46.1818 993.997 46.5781C993.387 46.9744 992.697 47.1726 991.926 47.1726C991.363 47.1726 990.896 47.0788 990.526 46.8913C990.155 46.7038 989.857 46.478 989.631 46.2138C989.409 45.9453 989.237 45.6918 989.113 45.4531H988.979V47H986.703ZM988.972 42.0909C988.972 42.7259 989.062 43.282 989.241 43.7592C989.424 44.2365 989.686 44.6094 990.027 44.8778C990.372 45.142 990.79 45.2741 991.28 45.2741C991.791 45.2741 992.22 45.1378 992.565 44.8651C992.91 44.5881 993.17 44.2109 993.345 43.7337C993.524 43.2521 993.613 42.7045 993.613 42.0909C993.613 41.4815 993.526 40.9403 993.351 40.4673C993.176 39.9943 992.916 39.6236 992.571 39.3551C992.226 39.0866 991.796 38.9524 991.28 38.9524C990.786 38.9524 990.366 39.0824 990.021 39.3423C989.676 39.6023 989.414 39.9666 989.235 40.4354C989.06 40.9041 988.972 41.456 988.972 42.0909ZM1002.29 47.1918C1001.3 47.1918 1000.45 46.9872 999.735 46.5781C999.023 46.1648 998.476 45.581 998.092 44.8267C997.709 44.0682 997.517 43.1754 997.517 42.1484C997.517 41.1385 997.709 40.2521 998.092 39.4893C998.48 38.7223 999.021 38.1257 999.716 37.6996C1000.41 37.2692 1001.23 37.054 1002.16 37.054C1002.77 37.054 1003.34 37.152 1003.88 37.348C1004.42 37.5398 1004.9 37.8381 1005.31 38.2429C1005.73 38.6477 1006.05 39.1634 1006.29 39.7898C1006.53 40.4119 1006.65 41.1534 1006.65 42.0142V42.7237H998.604V41.1641H1004.43C1004.43 40.7209 1004.33 40.3267 1004.15 39.9815C1003.96 39.6321 1003.7 39.3572 1003.36 39.157C1003.03 38.9567 1002.64 38.8565 1002.2 38.8565C1001.72 38.8565 1001.31 38.9716 1000.95 39.2017C1000.59 39.4276 1000.31 39.7259 1000.11 40.0966C999.916 40.4631 999.816 40.8658 999.812 41.3047V42.6662C999.812 43.2372 999.916 43.7273 1000.12 44.1364C1000.33 44.5412 1000.63 44.8523 1001 45.0696C1001.38 45.2827 1001.81 45.3892 1002.32 45.3892C1002.65 45.3892 1002.96 45.3423 1003.23 45.2486C1003.5 45.1506 1003.74 45.0078 1003.94 44.8203C1004.14 44.6328 1004.29 44.4006 1004.39 44.1236L1006.56 44.3665C1006.42 44.9375 1006.16 45.4361 1005.78 45.8622C1005.4 46.2841 1004.91 46.6122 1004.32 46.8466C1003.73 47.0767 1003.05 47.1918 1002.29 47.1918ZM1009.77 50.6818C1009.45 50.6818 1009.16 50.6563 1008.89 50.6051C1008.63 50.5582 1008.41 50.5028 1008.26 50.4389L1008.79 48.6364C1009.13 48.7344 1009.43 48.7813 1009.7 48.777C1009.96 48.7727 1010.19 48.6896 1010.39 48.5277C1010.6 48.37 1010.77 48.1058 1010.91 47.7351L1011.11 47.2045L1007.55 37.1818H1010L1012.27 44.5966H1012.37L1014.64 37.1818H1017.1L1013.17 48.1889C1012.98 48.7088 1012.74 49.1541 1012.44 49.5249C1012.14 49.8999 1011.76 50.1854 1011.33 50.3814C1010.89 50.5817 1010.37 50.6818 1009.77 50.6818ZM1022.65 47.1918C1021.69 47.1918 1020.86 46.9808 1020.15 46.5589C1019.45 46.1371 1018.91 45.5469 1018.52 44.7884C1018.13 44.0298 1017.94 43.1435 1017.94 42.1293C1017.94 41.1151 1018.13 40.2266 1018.52 39.4638C1018.91 38.701 1019.45 38.1087 1020.15 37.6868C1020.86 37.2649 1021.69 37.054 1022.65 37.054C1023.61 37.054 1024.44 37.2649 1025.14 37.6868C1025.84 38.1087 1026.39 38.701 1026.77 39.4638C1027.16 40.2266 1027.35 41.1151 1027.35 42.1293C1027.35 43.1435 1027.16 44.0298 1026.77 44.7884C1026.39 45.5469 1025.84 46.1371 1025.14 46.5589C1024.44 46.9808 1023.61 47.1918 1022.65 47.1918ZM1022.66 45.3381C1023.18 45.3381 1023.61 45.1953 1023.96 44.9098C1024.31 44.62 1024.57 44.2322 1024.74 43.7464C1024.92 43.2607 1025.01 42.7195 1025.01 42.1229C1025.01 41.522 1024.92 40.9787 1024.74 40.4929C1024.57 40.0028 1024.31 39.6129 1023.96 39.3232C1023.61 39.0334 1023.18 38.8885 1022.66 38.8885C1022.13 38.8885 1021.68 39.0334 1021.33 39.3232C1020.98 39.6129 1020.72 40.0028 1020.54 40.4929C1020.37 40.9787 1020.29 41.522 1020.29 42.1229C1020.29 42.7195 1020.37 43.2607 1020.54 43.7464C1020.72 44.2322 1020.98 44.62 1021.33 44.9098C1021.68 45.1953 1022.13 45.3381 1022.66 45.3381ZM1031.63 41.2472V47H1029.32V37.1818H1031.53V38.8501H1031.64C1031.87 38.3004 1032.23 37.8636 1032.72 37.5398C1033.22 37.2159 1033.84 37.054 1034.57 37.054C1035.25 37.054 1035.84 37.1989 1036.34 37.4886C1036.85 37.7784 1037.24 38.1982 1037.52 38.7479C1037.8 39.2976 1037.94 39.9645 1037.93 40.7486V47H1035.62V41.1065C1035.62 40.4503 1035.45 39.9368 1035.11 39.5661C1034.77 39.1953 1034.3 39.0099 1033.71 39.0099C1033.3 39.0099 1032.94 39.0994 1032.63 39.2784C1032.32 39.4531 1032.07 39.7067 1031.89 40.0391C1031.72 40.3714 1031.63 40.7741 1031.63 41.2472ZM1043.93 47.1726C1043.16 47.1726 1042.47 46.9744 1041.86 46.5781C1041.25 46.1818 1040.77 45.6065 1040.41 44.8523C1040.06 44.098 1039.88 43.1818 1039.88 42.1037C1039.88 41.0128 1040.06 40.0923 1040.42 39.3423C1040.78 38.5881 1041.27 38.0192 1041.88 37.6357C1042.5 37.2479 1043.18 37.054 1043.93 37.054C1044.51 37.054 1044.98 37.152 1045.35 37.348C1045.72 37.5398 1046.02 37.772 1046.24 38.0447C1046.45 38.3132 1046.62 38.5668 1046.74 38.8054H1046.84V33.9091H1049.16V47H1046.88V45.4531H1046.74C1046.62 45.6918 1046.45 45.9453 1046.22 46.2138C1046 46.478 1045.7 46.7038 1045.33 46.8913C1044.96 47.0788 1044.49 47.1726 1043.93 47.1726ZM1044.57 45.2741C1045.06 45.2741 1045.48 45.142 1045.83 44.8778C1046.17 44.6094 1046.43 44.2365 1046.61 43.7592C1046.79 43.282 1046.88 42.7259 1046.88 42.0909C1046.88 41.456 1046.79 40.9041 1046.61 40.4354C1046.44 39.9666 1046.18 39.6023 1045.83 39.3423C1045.49 39.0824 1045.07 38.9524 1044.57 38.9524C1044.06 38.9524 1043.63 39.0866 1043.28 39.3551C1042.94 39.6236 1042.68 39.9943 1042.5 40.4673C1042.33 40.9403 1042.24 41.4815 1042.24 42.0909C1042.24 42.7045 1042.33 43.2521 1042.5 43.7337C1042.68 44.2109 1042.94 44.5881 1043.29 44.8651C1043.64 45.1378 1044.07 45.2741 1044.57 45.2741Z" fill="white"/>
</svg>
